<svg xmlns:dc="http://purl.org/dc/elements/1.1/" xmlns:cc="http://creativecommons.org/ns#" xmlns:rdf="http://www.w3.org/1999/02/22-rdf-syntax-ns#" xmlns:svg="http://www.w3.org/2000/svg" xmlns="http://www.w3.org/2000/svg" xmlns:sodipodi="http://sodipodi.sourceforge.net/DTD/sodipodi-0.dtd" xmlns:inkscape="http://www.inkscape.org/namespaces/inkscape" width="100" height="100" id="svg3174" version="1.1" inkscape:version="0.48.2 r9819" sodipodi:docname="SoundWave.svg">
  <title id="title3049">Sound Wave</title>
  <defs id="defs3176"/>
  <sodipodi:namedview id="base" pagecolor="#ffffff" bordercolor="#666666" borderopacity="1.0" inkscape:pageopacity="0.0" inkscape:pageshadow="2" inkscape:zoom="2.8284271" inkscape:cx="-25.471646" inkscape:cy="48.315905" inkscape:document-units="px" inkscape:current-layer="layer1" showgrid="false" inkscape:window-width="1280" inkscape:window-height="725" inkscape:window-x="0" inkscape:window-y="0" inkscape:window-maximized="1"/>
  <metadata id="metadata3179">
    <rdf:RDF>
      <cc:Work rdf:about="">
        <dc:format>image/svg+xml</dc:format>
        <dc:type rdf:resource="http://purl.org/dc/dcmitype/StillImage"/>
        <dc:title>Sound Wave</dc:title>
        <dc:date>2013-03-06</dc:date>
        <dc:creator>
          <cc:Agent>
            <dc:title>Alec Dhuse</dc:title>
          </cc:Agent>
        </dc:creator>
        <dc:subject>
          <rdf:Bag>
            <rdf:li>Sound</rdf:li>
            <rdf:li>Wave</rdf:li>
            <rdf:li>Form</rdf:li>
          </rdf:Bag>
        </dc:subject>
        <cc:license rdf:resource="http://creativecommons.org/licenses/by-sa/3.0/"/>
      </cc:Work>
      <cc:License rdf:about="http://creativecommons.org/licenses/by-sa/3.0/">
        <cc:permits rdf:resource="http://creativecommons.org/ns#Reproduction"/>
        <cc:permits rdf:resource="http://creativecommons.org/ns#Distribution"/>
        <cc:requires rdf:resource="http://creativecommons.org/ns#Notice"/>
        <cc:requires rdf:resource="http://creativecommons.org/ns#Attribution"/>
        <cc:permits rdf:resource="http://creativecommons.org/ns#DerivativeWorks"/>
        <cc:requires rdf:resource="http://creativecommons.org/ns#ShareAlike"/>
      </cc:License>
    </rdf:RDF>
  </metadata>
  <g inkscape:label="Layer 1" inkscape:groupmode="layer" id="layer1" transform="translate(0,-952.36218)">
    <path style="fill:#000000;fill-opacity:1;fill-rule:nonzero;stroke:none" d="m 24.632273,1023.0356 c -0.366021,-0.4239 -0.510257,-1.0157 -1.81878,-7.4646 -1.081433,-5.3293 -1.534426,-7.1375 -1.834478,-7.3235 -0.09456,-0.059 -0.727393,0.037 -1.40598,0.2094 -0.838583,0.2157 -1.603799,0.2781 -2.388894,0.1969 -1.325343,-0.1375 -1.891305,-0.5001 -3.785106,-2.4161 l -1.228446,-1.2429 -3.1599762,-0.2782 c -1.7379875,-0.1531 -4.1584312,-0.3705 -5.3787323,-0.4831 -2.85321519,-0.2624 -3.53136576,-0.5981 -2.511004,-1.2407 0.6285307,-0.3956 2.2361053,-0.6306 7.0529632,-1.03 l 4.2400663,-0.3516 0.491099,-1.0395 c 0.703458,-1.4891 2.386178,-3.22889 3.814409,-3.94362 0.653714,-0.32719 2.246995,-0.28191 2.471215,-0.28159 0.822715,0.33228 1.496336,0.82353 1.865216,1.03352 0.05492,-0.15002 0.810216,-3.43769 1.678539,-7.30511 0.868323,-3.8674 1.742388,-7.40511 1.942328,-7.8617 0.819546,-1.87134 1.351463,-0.85285 2.626719,5.02966 1.082773,4.99467 1.627796,6.96634 2.345828,8.48642 0.602099,1.27445 1.994006,2.84235 2.523487,2.84235 0.193169,0 0.831124,-0.27502 1.417933,-0.61128 1.10231,-0.6316 1.726909,-0.67629 3.677163,-0.26251 0.528171,0.1125 0.704863,0.0312 1.462808,-0.74036 1.298036,-1.30725 2.468376,-3.40519 4.090867,-7.33323 0.102362,-0.24689 0.269,-0.39909 0.370453,-0.33659 0.101426,0.0625 0.817207,1.14446 1.590724,2.40389 2.464881,4.01304 2.932574,4.43745 5.634812,5.11655 0.911793,0.22814 3.062144,0.89067 4.778505,1.47039 2.773203,0.93661 3.79893,1.15944 5.032245,1.09287 0.537565,-0.0312 0.788466,-0.8641 1.870958,-6.22784 0.917442,-4.54558 1.441245,-6.49693 1.679944,-6.25786 0.05149,0.0532 0.609214,2.02667 1.23918,4.389 1.119037,4.19618 1.443398,5.1481 1.754215,5.1481 0.08394,0 0.629561,-0.84974 1.212126,-1.88854 0.582594,-1.0385 1.164691,-1.92355 1.293605,-1.96636 0.299271,-0.10005 1.107615,1.50758 2.475648,4.92153 0.594641,1.48382 1.223765,2.85581 1.398085,3.04861 0.396635,0.4391 0.686263,0.3403 2.053422,-0.6988 l 1.090451,-0.82847 1.576649,1.07627 c 0.903431,0.6169 1.699604,1.0291 1.864624,0.966 0.15853,-0.059 0.987407,-1.28161 1.842279,-2.71232 0.854842,-1.43102 1.693549,-2.62922 1.863812,-2.66327 0.218134,-0.0438 0.56512,0.44752 1.173804,1.66041 1.350495,2.70948 2.541618,3.43908 4.174814,4.45338 9.686925,0.6597 10.28843,0.7566 10.28843,1.6595 0,0.6443 -0.409372,0.7151 -5.656195,0.9734 -2.359992,0.1157 -4.751694,0.2595 -5.314878,0.3195 -1.423707,0.8112 -2.374134,2.3885 -3.26867,3.5673 -0.535317,0.9803 -1.019955,1.7833 -1.076969,1.7842 -0.0571,9e-4 -0.626503,-0.6795 -1.26552,-1.5119 -0.638986,-0.8326 -1.458314,-1.8432 -1.820685,-2.2461 -0.646193,-0.7185 -0.685951,-0.7325 -2.073395,-0.7325 -1.572655,0 -4.589861,0.4725 -5.349585,0.8378 -0.299583,0.1437 -1.085145,1.191 -2.009389,2.678 -0.834652,1.3428 -1.600492,2.5732 -1.701882,2.7345 -0.256206,0.4072 -0.599072,0.04 -1.866246,-1.9926 -0.555414,-0.8916 -1.131269,-1.6211 -1.279719,-1.6211 -0.195665,0 -0.525143,1.2605 -1.199612,4.5904 -1.002229,4.948 -1.302061,6.0866 -1.630823,6.1928 -0.292717,0.094 -0.528171,-0.8211 -1.341133,-5.2162 -0.830531,-4.4906 -1.298817,-6.1873 -1.880133,-6.8123 -0.670348,-0.7204 -2.077577,-0.51 -5.051718,0.7554 -2.986936,1.2707 -3.64786,1.3647 -5.443298,0.7752 -1.174272,-0.3855 -1.408071,-0.41 -1.688743,-0.178 -0.42962,0.3572 -1.899887,2.5598 -3.266579,4.8934 -0.60447,1.0322 -1.260838,2.077 -1.458625,2.3217 l -0.359594,0.4448 -1.839501,-3.5784 c -2.522426,-4.9066 -2.910574,-5.2703 -4.880301,-4.5743 -1.127867,0.3983 -1.604454,0.2624 -3.089886,-0.8901 -0.689541,-0.5344 -1.355925,-0.9716 -1.480876,-0.9716 -0.337313,0 -0.754856,0.5366 -1.519604,1.9532 -0.884644,1.6386 -1.259247,2.9024 -2.657925,8.9674 -1.301563,5.644 -1.402017,5.9682 -1.939144,6.256 -0.529295,0.2843 -0.694315,0.2625 -1.037182,-0.1344 z" id="path3028" inkscape:connector-curvature="0" sodipodi:nodetypes="cscccsccccscccccscscscccccccccccssccccccccccccsccccccsccccssccccccccccccscsccc"/>
  </g>
</svg>