<svg xmlns="http://www.w3.org/2000/svg" xmlns:xlink="http://www.w3.org/1999/xlink" version="1.1" id="Layer_1" x="0px" y="0px" width="100px" height="100px" viewBox="0 0 100 100" enable-background="new 0 0 100 100" xml:space="preserve">
<g>
  <path d="M88.516,50.003c0-1.543-0.098-3.058-0.271-4.548L100,34.838c-1.001-3.311-2.321-6.479-3.925-9.471l-15.824,0.809   c-1.882-2.392-4.039-4.548-6.426-6.433l0.809-15.815C71.637,2.318,68.471,1.005,65.162,0L54.548,11.756   c-1.494-0.168-3.009-0.274-4.547-0.274c-1.541,0-3.055,0.106-4.549,0.274L34.84,0c-3.311,1.005-6.478,2.318-9.472,3.928   l0.807,15.815c-2.388,1.885-4.544,4.041-6.427,6.433L3.925,25.367C2.32,28.359,1.003,31.527,0,34.838l11.76,10.617   c-0.176,1.49-0.277,3.005-0.277,4.548c0,1.539,0.102,3.052,0.277,4.549L0,65.168c1.003,3.305,2.32,6.472,3.925,9.465l15.823-0.81   c1.883,2.393,4.039,4.549,6.427,6.434l-0.807,15.821c2.994,1.604,6.161,2.923,9.472,3.922l10.612-11.756   c1.494,0.174,3.008,0.273,4.549,0.273c1.538,0,3.053-0.1,4.547-0.273L65.162,100c3.309-0.999,6.475-2.318,9.472-3.922   l-0.809-15.821c2.387-1.885,4.544-4.041,6.426-6.434l15.824,0.81c1.604-2.993,2.924-6.16,3.925-9.465L88.244,54.552   C88.418,53.055,88.516,51.542,88.516,50.003z M50.001,77.043c-14.936,0-27.041-12.107-27.041-27.04   c0-14.939,12.105-27.047,27.041-27.047c14.935,0,27.04,12.107,27.04,27.047C77.041,64.936,64.936,77.043,50.001,77.043z"></path>
  <path d="M64.203,49.984c0,7.851-6.359,14.206-14.204,14.206c-7.847,0-14.204-6.355-14.204-14.206   c0-7.844,6.357-14.205,14.204-14.205C57.844,35.779,64.203,42.141,64.203,49.984z"></path>
</g>
</svg>