<svg xmlns="http://www.w3.org/2000/svg" xmlns:xlink="http://www.w3.org/1999/xlink" version="1.1" x="0px" y="0px" width="100px" height="100px" viewBox="0 0 100 100" enable-background="new 0 0 100 100" xml:space="preserve">
<g id="Captions">
</g>
<g id="Your_Icon">
  <g>
    <polygon points="15.472,26.974 37.742,4.702 37.742,26.974   "></polygon>
    <path d="M15.679,99.892c-2.708,0-4.907-2.198-4.907-4.905V37.002H42.87c2.707,0,4.904-2.197,4.904-4.904V0h36.318    C86.803,0,89,2.197,89,4.907v90.079c0,2.707-2.197,4.905-4.908,4.905H15.679z M61.51,58.973l11.146,10.816    c0.971,0.945,2.23,1.415,3.49,1.415c1.311,0,2.613-0.507,3.6-1.524c1.93-1.986,1.883-5.161-0.105-7.089L59.992,43.524    c-1.951-1.888-5.043-1.888-6.988,0L33.349,62.591c-1.985,1.928-2.031,5.103-0.106,7.089c1.934,1.989,5.103,2.035,7.092,0.109    L51.48,58.976V87.5c0,2.77,2.244,5.015,5.016,5.015c2.768,0,5.014-2.245,5.014-5.015V58.973z"></path>
  </g>
</g>
</svg>
