<svg xmlns="http://www.w3.org/2000/svg" xmlns:xlink="http://www.w3.org/1999/xlink" version="1.1" x="0px" y="0px" width="100px" height="100px" viewBox="0 0 100 100" enable-background="new 0 0 100 100" xml:space="preserve">
<g id="Captions">
	<rect x="-192" width="185" height="99"/>
	<rect y="-36" width="100" height="30"/>
	<text transform="matrix(1 0 0 1 66 -19.5)" fill="#000000" font-family="'Helvetica'" font-size="2.4">http://thenounproject.com</text>
	<text transform="matrix(1 0 0 1 7.166 -24.5)"><tspan x="0" y="0" fill="#000000" font-family="'Helvetica-Bold'" font-size="6.1578">The Noun Project</tspan><tspan x="1.12" y="4.8" fill="#000000" font-family="'Helvetica-Bold'" font-size="4">Icon Template</tspan></text>
	<text transform="matrix(1 0 0 1 -178.5 10.5)" fill="#000000" font-family="'Helvetica-Bold'" font-size="6.1578">Reminders</text>
	<line fill="#000000" stroke="#FFFFFF" stroke-miterlimit="10" x1="8" y1="-14.5" x2="18" y2="-14.5"/>
	<line fill="#000000" stroke="#FFFFFF" stroke-miterlimit="10" x1="-179" y1="16.5" x2="-162" y2="16.5"/>
	<g>
		<g>
			<g>
				<rect x="-170.802" y="31.318" fill="#000000" width="8.721" height="8.642"/>
				<path fill="#000000" d="M-164.455,42.312h4.747v-4.703h-4.747V42.312z M-159.266,42.749h-5.63V37.17h5.63V42.749      L-159.266,42.749z M-166.221,44.062h8.279v-8.203h-8.279V44.062L-166.221,44.062z M-157.5,44.5h-9.163v-9.079h9.163V44.5      L-157.5,44.5z"/>
				<polygon fill="#000000" points="-166.149,44.133 -166.292,43.991 -158.013,35.787 -157.871,35.929     "/>
			</g>
		</g>
	</g>
	<rect x="-179" y="58" fill="none" width="35" height="32.5"/>
	<text transform="matrix(1 0 0 1 -179 60.1572)"><tspan x="0" y="0" fill="#000000" font-family="'Helvetica-Bold'" font-size="3">Strokes</tspan><tspan x="0" y="5" fill="#000000" font-family="'Helvetica'" font-size="2.4">Try to keep strokes at 4px</tspan><tspan x="0" y="10" fill="#000000" font-family="'Helvetica'" font-size="2.4">Minimum stroke weight is 2px</tspan><tspan x="0" y="14.5" fill="#000000" font-family="'Helvetica'" font-size="2.4">For thicker strokes use even </tspan><tspan x="0" y="17.5" fill="#000000" font-family="'Helvetica'" font-size="2.4">numbers: 6px, 8px etc.</tspan><tspan x="0" y="22" fill="#000000" font-family="'Helvetica-Bold'" font-size="2.4">Remember to expand strokes </tspan><tspan x="0" y="25" fill="#000000" font-family="'Helvetica-Bold'" font-size="2.4">before saving as an SVG </tspan></text>
	<rect x="-136.5" y="58" fill="none" width="35" height="32.5"/>
	<text transform="matrix(1 0 0 1 -136.5 60.1572)"><tspan x="0" y="0" fill="#000000" font-family="'Helvetica-Bold'" font-size="3">Size</tspan><tspan x="0" y="5" fill="#000000" font-family="'Helvetica'" font-size="2.4">Cannot be wider or taller than </tspan><tspan x="0" y="8.5" fill="#000000" font-family="'Helvetica'" font-size="2.4">100px (artboard size)</tspan><tspan x="0" y="13.5" fill="#000000" font-family="'Helvetica'" font-size="2.4">Scale your icon to fill as much of </tspan><tspan x="0" y="16.5" fill="#000000" font-family="'Helvetica'" font-size="2.4">the artboard as possible</tspan></text>
	<rect x="-94" y="58" fill="none" width="35" height="32.5"/>
	<text transform="matrix(1 0 0 1 -94 60.1572)"><tspan x="0" y="0" fill="#000000" font-family="'Helvetica-Bold'" font-size="3">Ungroup</tspan><tspan x="0" y="5" fill="#000000" font-family="'Helvetica'" font-size="2.4">If your design has more than one </tspan><tspan x="0" y="8" fill="#000000" font-family="'Helvetica'" font-size="2.4">shape, make sure to ungroup</tspan></text>
	<rect x="-50" y="58" fill="none" width="35" height="32.5"/>
	<text transform="matrix(1 0 0 1 -50 60.1572)"><tspan x="0" y="0" fill="#000000" font-family="'Helvetica-Bold'" font-size="3">Save as</tspan><tspan x="0" y="5" fill="#000000" font-family="'Helvetica'" font-size="2.4">Save as .SVG and make sure </tspan><tspan x="0" y="8" fill="#000000" font-family="'Helvetica'" font-size="2.4">&#8220;Use Artboards&#8221; is checked</tspan></text>
	<text transform="matrix(1.0074 0 0 1 -125.542 30.5933)" fill="#000000" font-family="'Helvetica'" font-size="2.5731">100px</text>
	<text transform="matrix(1.0074 0 0 1 -41 39)" fill="#000000" font-family="'Helvetica-Bold'" font-size="5.1462">.SVG</text>
	<rect x="-126.514" y="34.815" fill="#000000" width="10.261" height="10.185"/>
	<rect x="-126.477" y="31.766" fill="#000000" width="0.522" height="2.337"/>
	<rect x="-116.812" y="31.766" fill="#000000" width="0.523" height="2.337"/>
	<rect x="-127" y="32.337" fill="#000000" width="11.233" height="0.572"/>
	<g>
		<rect x="-83.805" y="33.844" fill="#000000" width="10.305" height="10.156"/>
		<rect x="-76.809" y="28.707" fill="#000000" width="3.308" height="3.261"/>
	</g>
	<rect x="-178.5" y="22.5" fill="#000000" stroke="#FFFFFF" stroke-miterlimit="10" width="30" height="30"/>
	<rect x="-136.5" y="22.5" fill="#000000" stroke="#FFFFFF" stroke-miterlimit="10" width="30" height="30"/>
	<rect x="-93.5" y="22.5" fill="#000000" stroke="#FFFFFF" stroke-miterlimit="10" width="30" height="30"/>
	<rect x="-49.5" y="22.5" fill="#000000" stroke="#FFFFFF" stroke-miterlimit="10" width="30" height="30"/>
</g>
<g id="Your_Icon">
	<path fill="#000000" d="M67,76.444v-0.315c0-6.552-1.335-39.233-13.336-39.233c-0.264,0-0.665,0.016-0.938,0.049   C40.49,38.427,36,61.282,35,76.283c0,0.004,0,0.008,0,0.013c0,0.044,0.232,0.085,0.231,0.13c-0.015,0.791,0.102,1.717,0.116,2.462   c0.054,5.267,0.065,17.253,0.065,17.374c-0.002,0.531,0.239,0.908,0.615,1.285S36.945,98,37.478,98h12.239   c0.98,0,1.815-0.574,1.974-1.543l0.309-1.821l0.485,1.931c0.215,0.9,1.02,1.434,1.945,1.434h11.022C66.557,98,67,97.375,67,96.271   V77.695C67.286,77.342,67,76.904,67,76.444z M53.562,40.916c0.11-0.013,0.22-0.02,0.327-0.02c4.792,0,7.854,13.751,9.038,26.522   c-10.127-0.51-18.204-7.792-18.412-16.759C47.031,44.754,50.192,41.324,53.562,40.916z M42.086,57.937   c3.322,7.692,11.51,13.218,21.155,13.513c0.063,1.015,0.116,2.015,0.155,2.987l-23.828-0.096   C39.855,68.804,40.751,63.024,42.086,57.937z"/>
	<g>
		<circle fill="#000000" cx="52.056" cy="25.122" r="0.591"/>
	</g>
	<circle fill="#000000" cx="49.258" cy="22.324" r="0.591"/>
	<circle fill="#000000" cx="46.461" cy="22.324" r="0.592"/>
	<g>
		<circle fill="#000000" cx="45.062" cy="25.122" r="0.592"/>
	</g>
	<g>
		<circle fill="#000000" cx="47.859" cy="25.122" r="0.591"/>
	</g>
	<g>
		<circle fill="#000000" cx="54.854" cy="27.919" r="0.592"/>
	</g>
	<g>
		<circle fill="#000000" cx="57.651" cy="26.52" r="0.591"/>
	</g>
	<circle fill="#000000" cx="57.651" cy="22.324" r="0.591"/>
	<circle fill="#000000" cx="59.049" cy="23.723" r="0.591"/>
	<circle fill="#000000" cx="61.846" cy="23.723" r="0.591"/>
	<circle fill="#000000" cx="53.454" cy="22.324" r="0.592"/>
	<circle fill="#000000" cx="61.846" cy="20.925" r="0.591"/>
	<circle fill="#000000" cx="43.664" cy="20.925" r="0.591"/>
	<g>
		<circle fill="#000000" cx="47.859" cy="27.919" r="0.591"/>
	</g>
	<g>
		<path fill="#000000" d="M56.615,24.578c0,1.503-2.162,2.721-4.403,2.721c-2.242,0-3.715-1.218-3.715-2.721    c0-1.502,2.165-0.449,4.404-0.449C55.143,24.128,56.615,23.075,56.615,24.578z"/>
	</g>
	<path fill="#000000" d="M52.647,10.396c0,0,1.05-0.011,1.398,0c2.425,0.072,7.016,0.336,11.406,0.923L64.053,0.605   c0,0-8.09,1.399-10.785,1.399c-2.549,0-10.195-1.399-10.195-1.399l-1.399,9.979C45.676,10.252,49.769,10.396,52.647,10.396z"/>
	<g>
		<path fill="#000000" d="M54.046,11.795c-0.349-0.011-1.398,0-1.398,0c-5.734,0-16.277-0.582-21.348,3.207    c-4.188,3.129,5.49,4.426,8.991,4.783c0.282,7.195,5.216,12.357,11.956,12.357c7.021,0,13.229-5.368,13.952-11.764    c2.626,0.212,9.008,0.348,10.093-3.103C77.574,13.197,59.772,11.965,54.046,11.795z M52.247,30.102    c-5.762,0-9.942-4.61-9.942-10.963c0-1.204,0.252-2.373,0.688-3.476c0.027-0.01,0.051-0.027,0.08-0.035    c13.392-3.617,20.039-0.037,20.789,0.406c0.031,0.128,0.064,0.256,0.092,0.387c0.026,0.459,0.094,1.309,0.255,2.097    c0.009,0.206,0.021,0.411,0.021,0.621C64.229,24.979,58.631,30.102,52.247,30.102z"/>
	</g>
	<path fill="#000000" d="M49.374,18.99c0,0.975-0.941,1.766-1.918,1.766c-0.975,0-1.616-0.791-1.616-1.766   c0-0.977,0.942-1.766,1.917-1.766C48.732,17.224,49.374,18.013,49.374,18.99z"/>
	<path fill="#000000" d="M59.351,18.99c0,0.975-0.942,1.766-1.917,1.766c-0.977,0-1.617-0.791-1.617-1.766   c0-0.977,0.942-1.766,1.918-1.766C58.709,17.224,59.351,18.013,59.351,18.99z"/>
	<g>
		<path fill="#000000" d="M31.656,66.216c0,0-0.07-0.436-0.202-1.254c-0.14-0.826-0.354-2.041-0.663-3.583    c-0.626-3.077-1.578-7.489-3.236-12.581c-0.839-2.535-1.854-5.254-3.253-7.892c-0.699-1.314-1.507-2.604-2.467-3.729    c-0.959-1.114-2.104-2.049-3.335-2.382c-1.217-0.339-2.569-0.013-3.867,0.81c-0.635,0.389-1.287,0.931-1.879,1.491    c-0.564,0.536-1.123,1.159-1.583,1.816c-1.908,2.638-2.408,6.146-1.872,9.574c0.522,3.445,1.839,6.815,3.372,9.997    c1.542,3.189,3.33,6.219,5.111,9.124c1.775,2.913,3.594,5.676,5.095,8.472c1.525,2.82,2.25,5.807,2.589,8.536    c0.327,2.744,0.255,5.295-0.115,7.506c-0.375,2.202-1.056,4.104-2.096,5.36c-0.515,0.625-1.134,1.058-1.738,1.242    c-0.604,0.191-1.154,0.154-1.572,0.069c-0.422-0.086-0.724-0.222-0.927-0.307c-0.198-0.098-0.3-0.148-0.3-0.148    s0.104,0.047,0.305,0.138c0.206,0.078,0.511,0.203,0.931,0.273c0.416,0.07,0.956,0.087,1.533-0.118    c0.578-0.198,1.159-0.634,1.637-1.256c0.967-1.25,1.574-3.135,1.868-5.309c0.29-2.182,0.275-4.693-0.136-7.367    c-0.429-2.667-1.218-5.524-2.786-8.175c-1.564-2.672-3.483-5.368-5.373-8.223c-1.898-2.852-3.82-5.846-5.525-9.059    c-1.692-3.211-3.211-6.655-3.93-10.413c-0.345-1.875-0.466-3.836-0.188-5.789c0.27-1.949,0.975-3.868,2.053-5.521    c0.542-0.833,1.151-1.573,1.85-2.288c0.674-0.685,1.368-1.308,2.212-1.872c0.826-0.553,1.757-1.025,2.794-1.286    c1.032-0.263,2.168-0.291,3.214-0.041c2.117,0.516,3.679,1.835,4.898,3.146c1.219,1.342,2.167,2.774,2.984,4.197    c1.627,2.854,2.774,5.677,3.737,8.299c1.895,5.257,3.007,9.743,3.752,12.892c0.367,1.575,0.627,2.821,0.8,3.675    c0.167,0.864,0.256,1.326,0.256,1.326L31.656,66.216z"/>
	</g>
</g>
</svg>